<svg xmlns="http://www.w3.org/2000/svg" viewBox="0 0 709.17 103.81"><defs><style>.cls-1{fill:#fff;}</style></defs><g id="Ebene_2" data-name="Ebene 2"><g id="Ebene_1-2" data-name="Ebene 1"><path class="cls-1" d="M0,100.75V4H72.72L54.27,29.52l-22.55-.08V40.8h42L56.36,65H31.72V75.34l41,.14L54.27,100.75Z"/><path class="cls-1" d="M345.8,75.43l51.21.08-19.5,26.58H286.38l52.34-73.72H286.38L305.65,2.27H397Z"/><path class="cls-1" d="M153.89,100.67,111.47,50.56v50.11h-32V3.42h30.8l41.87,50v-50h31.2v97.25Z"/><path class="cls-1" d="M265.19,88.78c-10.27,8.51-21.35,11.89-36.07,11.89H189.55V3.28h39.57a58,58,0,0,1,36.07,12c11.88,9.19,18,21.61,18,36.88C283.15,66.76,276.26,79.46,265.19,88.78Zm-43.77-59V74.6c16.75,0,27.56-4.59,28-22.42C249.38,37.32,239.52,29.76,221.42,29.76Z"/><path class="cls-1" d="M459,103.64c-31.33,1.21-63.62-17.56-62-51.73-.68-33.5,30.52-54,62-51.74,31.2-1.08,62.41,18.37,60.92,52C520.34,85,490.62,105.93,459,103.64Zm0-75.51c-13.91,0-28.23,6.62-28.23,23.91,0,15.67,14.32,23.77,28.23,23.77S486.16,68.93,486.16,52C486.16,37.45,473.47,28.13,459,28.13Z"/><path class="cls-1" d="M600.43,100.67,558,50.56v50.11H526V3.42h30.8l41.87,50v-50h31.2v97.25Z"/><path class="cls-1" d="M636.09,100.67V3.42h73.08v26.2L668,29.48v11h38.36l.13,24.31H668v10.4l41.2.13v25.4Z"/></g></g></svg>